<?xml version="1.0" encoding="UTF-8"?>
<svg id="Layer_2" data-name="Layer 2" xmlns="http://www.w3.org/2000/svg" viewBox="0 0 127 67.6">
  <defs>
    <style>
      .cls-1 {
        fill: #1c24f9;
        stroke: #fff;
        stroke-miterlimit: 10;
        stroke-width: 2px;
      }
    </style>
  </defs>
  <g id="lettres">
    <g>
      <path class="cls-1" d="M72.5,1h19.5v21h-19.5c-5.8,0-10.5-4.7-10.5-10.5h0c0-5.8,4.7-10.5,10.5-10.5Z"/>
      <path class="cls-1" d="M72,44.5h19.5v1.5c0,10.76-8.74,19.5-19.5,19.5h0c-5.8,0-10.5-4.7-10.5-10.5h0c0-5.8,4.7-10.5,10.5-10.5Z"/>
      <path class="cls-1" d="M102.5,1h19.5v21h-19.5c-5.8,0-10.5-4.7-10.5-10.5h0c0-5.8,4.7-10.5,10.5-10.5Z" transform="translate(214 23) rotate(180)"/>
      <circle class="cls-1" cx="104" cy="34" r="12"/>
      <path class="cls-1" d="M72,22.5h19.5v21h-19.5c-5.8,0-10.5-4.7-10.5-10.5h0c0-5.8,4.7-10.5,10.5-10.5Z"/>
      <path class="cls-1" d="M73.5,1h19.5v21h-19.5c-5.8,0-10.5-4.7-10.5-10.5h0c0-5.8,4.7-10.5,10.5-10.5Z"/>
      <path class="cls-1" d="M73,44.5h19.5v1.5c0,10.76-8.74,19.5-19.5,19.5h0c-5.8,0-10.5-4.7-10.5-10.5h0c0-5.8,4.7-10.5,10.5-10.5Z"/>
      <path class="cls-1" d="M103.5,1h19.5v21h-19.5c-5.8,0-10.5-4.7-10.5-10.5h0c0-5.8,4.7-10.5,10.5-10.5Z" transform="translate(216 23) rotate(180)"/>
      <circle class="cls-1" cx="105" cy="34" r="12"/>
      <path class="cls-1" d="M73,22.5h19.5v21h-19.5c-5.8,0-10.5-4.7-10.5-10.5h0c0-5.8,4.7-10.5,10.5-10.5Z"/>
      <path class="cls-1" d="M74.5,1h19.5v21h-19.5c-5.8,0-10.5-4.7-10.5-10.5h0c0-5.8,4.7-10.5,10.5-10.5Z"/>
      <path class="cls-1" d="M74,44.5h19.5v1.5c0,10.76-8.74,19.5-19.5,19.5h0c-5.8,0-10.5-4.7-10.5-10.5h0c0-5.8,4.7-10.5,10.5-10.5Z"/>
      <path class="cls-1" d="M104.5,1h19.5v21h-19.5c-5.8,0-10.5-4.7-10.5-10.5h0c0-5.8,4.7-10.5,10.5-10.5Z" transform="translate(218 23) rotate(180)"/>
      <circle class="cls-1" cx="106" cy="34" r="12"/>
      <path class="cls-1" d="M74,22.5h19.5v21h-19.5c-5.8,0-10.5-4.7-10.5-10.5h0c0-5.8,4.7-10.5,10.5-10.5Z"/>
      <path class="cls-1" d="M75.5,1h19.5v21h-19.5c-5.8,0-10.5-4.7-10.5-10.5h0c0-5.8,4.7-10.5,10.5-10.5Z"/>
      <path class="cls-1" d="M75,44.5h19.5v1.5c0,10.76-8.74,19.5-19.5,19.5h0c-5.8,0-10.5-4.7-10.5-10.5h0c0-5.8,4.7-10.5,10.5-10.5Z"/>
      <path class="cls-1" d="M105.5,1h19.5v21h-19.5c-5.8,0-10.5-4.7-10.5-10.5h0c0-5.8,4.7-10.5,10.5-10.5Z" transform="translate(220 23) rotate(180)"/>
      <circle class="cls-1" cx="107" cy="34" r="12"/>
      <path class="cls-1" d="M75,22.5h19.5v21h-19.5c-5.8,0-10.5-4.7-10.5-10.5h0c0-5.8,4.7-10.5,10.5-10.5Z"/>
      <path class="cls-1" d="M76.5,1h19.5v21h-19.5c-5.8,0-10.5-4.7-10.5-10.5h0c0-5.8,4.7-10.5,10.5-10.5Z"/>
      <path class="cls-1" d="M76,44.5h19.5v1.5c0,10.76-8.74,19.5-19.5,19.5h0c-5.8,0-10.5-4.7-10.5-10.5h0c0-5.8,4.7-10.5,10.5-10.5Z"/>
      <path class="cls-1" d="M106.5,1h19.5v21h-19.5c-5.8,0-10.5-4.7-10.5-10.5h0c0-5.8,4.7-10.5,10.5-10.5Z" transform="translate(222 23) rotate(180)"/>
      <circle class="cls-1" cx="108" cy="34" r="12"/>
      <path class="cls-1" d="M76,22.5h19.5v21h-19.5c-5.8,0-10.5-4.7-10.5-10.5h0c0-5.8,4.7-10.5,10.5-10.5Z"/>
      <path class="cls-1" d="M28.47,9.6l16.58,37.96c3.06,7-.39,15.04-7.7,17.97h0c-7.31,2.93-15.71-.37-18.77-7.37L2,20.2c-2.75-6.3.35-13.55,6.93-16.19l2.62-1.05c6.58-2.64,14.15.34,16.91,6.64Z"/>
      <path class="cls-1" d="M36.54,9.81l-16.82,37.57c-3.12,6.97.25,15.05,7.53,18.04h0c7.28,2.99,15.71-.24,18.84-7.21l16.82-37.57c2.87-6.42-.23-13.85-6.93-16.6l-2.1-.86c-6.7-2.75-14.47.22-17.34,6.64Z"/>
      <path class="cls-1" d="M29.47,9.6l16.58,37.96c3.06,7-.39,15.04-7.7,17.97h0c-7.31,2.93-15.71-.37-18.77-7.37L3,20.2C.25,13.9,3.35,6.65,9.94,4.01l2.62-1.05c6.58-2.64,14.15.34,16.91,6.64Z"/>
      <path class="cls-1" d="M37.54,9.81l-16.82,37.57c-3.12,6.97.25,15.05,7.53,18.04h0c7.28,2.99,15.71-.24,18.84-7.21l16.82-37.57c2.87-6.42-.23-13.85-6.93-16.6l-2.1-.86c-6.7-2.75-14.47.22-17.34,6.64Z"/>
      <path class="cls-1" d="M30.47,9.6l16.58,37.96c3.06,7-.39,15.04-7.7,17.97h0c-7.31,2.93-15.71-.37-18.77-7.37L4,20.2c-2.75-6.3.35-13.55,6.93-16.19l2.62-1.05c6.58-2.64,14.15.34,16.91,6.64Z"/>
      <path class="cls-1" d="M38.54,9.81l-16.82,37.57c-3.12,6.97.25,15.05,7.53,18.04h0c7.28,2.99,15.71-.24,18.84-7.21l16.82-37.57c2.87-6.42-.23-13.85-6.93-16.6l-2.1-.86c-6.7-2.75-14.47.22-17.34,6.64Z"/>
      <path class="cls-1" d="M31.47,9.6l16.58,37.96c3.06,7-.39,15.04-7.7,17.97h0c-7.31,2.93-15.71-.37-18.77-7.37L5,20.2c-2.75-6.3.35-13.55,6.93-16.19l2.62-1.05c6.58-2.64,14.15.34,16.91,6.64Z"/>
      <path class="cls-1" d="M39.54,9.81l-16.82,37.57c-3.12,6.97.25,15.05,7.53,18.04h0c7.28,2.99,15.71-.24,18.84-7.21l16.82-37.57c2.87-6.42-.23-13.85-6.93-16.6l-2.1-.86c-6.7-2.75-14.47.22-17.34,6.64Z"/>
      <path class="cls-1" d="M32.47,9.6l16.58,37.96c3.06,7-.39,15.04-7.7,17.97h0c-7.31,2.93-15.71-.37-18.77-7.37L6,20.2c-2.75-6.3.35-13.55,6.93-16.19l2.62-1.05c6.58-2.64,14.15.34,16.91,6.64Z"/>
      <path class="cls-1" d="M40.54,9.81l-16.82,37.57c-3.12,6.97.25,15.05,7.53,18.04h0c7.28,2.99,15.71-.24,18.84-7.21l16.82-37.57c2.87-6.42-.23-13.85-6.93-16.6l-2.1-.86c-6.7-2.75-14.47.22-17.34,6.64Z"/>
    </g>
  </g>
</svg>